<mxfile host="app.diagrams.net" modified="2023-06-24T13:52:42.683Z" agent="Mozilla/5.0 (Windows NT 10.0; Win64; x64) AppleWebKit/537.36 (KHTML, like Gecko) Chrome/114.0.0.0 Safari/537.36" version="21.5.0" etag="n1gug3OHmJn4zN9sKnsT" type="github">
  <diagram name="Page-1" id="EIMpZUZ657GCB9mqNxxI">
    <mxGraphModel>
      <root>
        <mxCell id="0" />
        <mxCell id="1" parent="0" />
      </root>
    </mxGraphModel>
  </diagram>
</mxfile>
